<?xml version="1.0" encoding="UTF-8" standalone="no" ?>
<!DOCTYPE svg PUBLIC "-//W3C//DTD SVG 1.1//EN" "http://www.w3.org/Graphics/SVG/1.1/DTD/svg11.dtd">
<svg xmlns="http://www.w3.org/2000/svg" xmlns:xlink="http://www.w3.org/1999/xlink" version="1.1" width="1080" height="1080" viewBox="0 0 1080 1080" xml:space="preserve">
<desc>Created with Fabric.js 5.2.4</desc>
<defs>
</defs>
<g transform="matrix(1 0 0 1 540 540)" id="0b7fb970-ba1c-4d08-9278-8f7f33016c07"  >
<rect style="stroke: none; stroke-width: 1; stroke-dasharray: none; stroke-linecap: butt; stroke-dashoffset: 0; stroke-linejoin: miter; stroke-miterlimit: 4; fill: rgb(255,255,255); fill-rule: nonzero; opacity: 1; visibility: hidden;" vector-effect="non-scaling-stroke"  x="-540" y="-540" rx="0" ry="0" width="1080" height="1080" />
</g>
<g transform="matrix(1 0 0 1 540 540)" id="3786f08c-bac8-46a9-8ec5-62c872a7189b"  >
</g>
<g transform="matrix(1 0 0 1 540 540)" id="f5bb4213-bd9a-4cf0-bf2d-bc6d6bf50daa"  >
<path style="stroke: rgb(0,0,0); stroke-width: 0; stroke-dasharray: none; stroke-linecap: butt; stroke-dashoffset: 0; stroke-linejoin: miter; stroke-miterlimit: 4; fill: rgb(255,255,255); fill-rule: nonzero; opacity: 1;" vector-effect="non-scaling-stroke"  transform=" translate(-255.98, -256.02)" d="M 505 442.7 L 405.3 343 C 400.8 338.5 394.7 336 388.3 336 L 372 336 C 399.6 300.7 416 256.3 416 208 C 416 93.1 322.9 0 208 0 C 93.10000000000002 0 0 93.1 0 208 C 0 322.9 93.1 416 208 416 C 256.3 416 300.7 399.6 336 372 L 336 388.3 C 336 394.7 338.5 400.8 343 405.3 L 442.7 505 C 452.09999999999997 514.4 467.3 514.4 476.59999999999997 505 L 504.9 476.7 C 514.3 467.3 514.3 452.09999999999997 505 442.7 z M 208 336 C 137.3 336 80 278.8 80 208 C 80 137.3 137.2 80 208 80 C 278.7 80 336 137.2 336 208 C 336 278.7 278.8 336 208 336 z" stroke-linecap="round" />
</g>
</svg>